<svg width="48" height="48" viewBox="0 0 48 48" fill="none" xmlns="http://www.w3.org/2000/svg">
<rect width="48" height="48" rx="24" fill="#5692FE"/>
<path d="M19.84 25.481V16.988C19.84 16.158 20.506 15.486 21.327 15.486C22.147 15.486 22.813 16.158 22.813 16.988M22.813 21.974V15.502C22.813 14.672 23.478 14 24.299 14C25.119 14 25.785 14.673 25.785 15.502V23.006M25.785 17.476C25.785 16.643 26.484 15.968 27.308 15.968C28.132 15.968 28.801 16.643 28.801 17.477V23.999M28.801 19.516C28.801 18.692 29.461 18.022 30.275 18.022C31.09 18.022 31.75 18.689 31.75 19.512V28.125C31.75 29.157 31.374 30.31 30.232 31.685C29.902 32.083 29.696 32.577 29.696 33.096V34M19.84 20.856C19.007 21.637 16.99 23.699 16.435 24.843C15.882 25.987 16.705 27.339 17.051 27.868L19.839 31.576C20.102 31.926 20.245 32.353 20.245 32.794V34" stroke="white" stroke-width="1.5" stroke-linecap="round" stroke-linejoin="round"/>
</svg>
