<svg width="48" height="48" viewBox="0 0 48 48" fill="none" xmlns="http://www.w3.org/2000/svg">
<rect width="48" height="48" rx="24" fill="#DA4A4A"/>
<path d="M20.4375 16.3125H20.25C20.3531 16.3125 20.4375 16.2281 20.4375 16.125V16.3125ZM20.4375 16.3125H27.5625V16.125C27.5625 16.2281 27.6469 16.3125 27.75 16.3125H27.5625V18H29.25V16.125C29.25 15.2977 28.5773 14.625 27.75 14.625H20.25C19.4227 14.625 18.75 15.2977 18.75 16.125V18H20.4375V16.3125ZM32.25 18H15.75C15.3352 18 15 18.3352 15 18.75V19.5C15 19.6031 15.0844 19.6875 15.1875 19.6875H16.6031L17.182 31.9453C17.2195 32.7445 17.8805 33.375 18.6797 33.375H29.3203C30.1219 33.375 30.7805 32.7469 30.818 31.9453L31.3969 19.6875H32.8125C32.9156 19.6875 33 19.6031 33 19.5V18.75C33 18.3352 32.6648 18 32.25 18ZM29.1398 31.6875H18.8602L18.293 19.6875H29.707L29.1398 31.6875Z" fill="white"/>
</svg>
