<svg width="24" height="24" viewBox="0 0 24 24" fill="none" xmlns="http://www.w3.org/2000/svg">
<path d="M12 3.60001C9.35521 3.60001 7.20001 5.75521 7.20001 8.40001C7.20001 8.6387 7.29483 8.86762 7.46362 9.0364C7.6324 9.20519 7.86132 9.30001 8.10001 9.30001C8.33871 9.30001 8.56763 9.20519 8.73641 9.0364C8.90519 8.86762 9.00001 8.6387 9.00001 8.40001C9.00001 6.74881 10.3488 5.40001 12 5.40001C13.6512 5.40001 15 6.74881 15 8.40001C15 9.11641 14.8128 9.57001 14.5584 9.92401C14.28 10.314 13.902 10.62 13.3956 11.028L13.3836 11.0376C12.9036 11.4252 12.312 11.9064 11.8596 12.5832C11.3904 13.2888 11.1 14.1588 11.1 15.3V15.9C11.1 16.1387 11.1948 16.3676 11.3636 16.5364C11.5324 16.7052 11.7613 16.8 12 16.8C12.2387 16.8 12.4676 16.7052 12.6364 16.5364C12.8052 16.3676 12.9 16.1387 12.9 15.9V15.3C12.9 14.4912 13.0968 13.974 13.3584 13.5816C13.638 13.1628 14.0208 12.8376 14.5152 12.438L14.5968 12.372C15.0456 12.0096 15.5976 11.5656 16.0224 10.9716C16.5 10.3056 16.8 9.48361 16.8 8.40001C16.8 5.75521 14.6448 3.60001 12 3.60001ZM12 20.4C12.3183 20.4 12.6235 20.2736 12.8485 20.0485C13.0736 19.8235 13.2 19.5183 13.2 19.2C13.2 18.8817 13.0736 18.5765 12.8485 18.3515C12.6235 18.1264 12.3183 18 12 18C11.6818 18 11.3765 18.1264 11.1515 18.3515C10.9264 18.5765 10.8 18.8817 10.8 19.2C10.8 19.5183 10.9264 19.8235 11.1515 20.0485C11.3765 20.2736 11.6818 20.4 12 20.4Z" fill="black"/>
</svg>
