<svg width="48" height="48" viewBox="0 0 48 48" fill="none" xmlns="http://www.w3.org/2000/svg">
<rect width="48" height="48" rx="24" fill="#5692FE"/>
<path d="M24 22L20 16.4L21.6 14H26.4L28 16.4L24 22ZM27.5 18.8L26.3 20.5C28.5 21.4 30 23.5 30 26C30 27.5913 29.3679 29.1174 28.2426 30.2426C27.1174 31.3679 25.5913 32 24 32C22.4087 32 20.8826 31.3679 19.7574 30.2426C18.6321 29.1174 18 27.5913 18 26C18 23.5 19.5 21.4 21.7 20.5L20.5 18.8C17.8 20.1 16 22.8 16 26C16 28.1217 16.8429 30.1566 18.3431 31.6569C19.8434 33.1571 21.8783 34 24 34C26.1217 34 28.1566 33.1571 29.6569 31.6569C31.1571 30.1566 32 28.1217 32 26C32 22.8 30.2 20.1 27.5 18.8Z" fill="white"/>
</svg>
