<svg width="48" height="48" viewBox="0 0 48 48" fill="none" xmlns="http://www.w3.org/2000/svg">
<rect width="48" height="48" rx="24" fill="#F4F4F7"/>
<path d="M17 31H18.425L28.2 21.225L26.775 19.8L17 29.575V31ZM15 33V28.75L28.2 15.575C28.4 15.3917 28.621 15.25 28.863 15.15C29.105 15.05 29.359 15 29.625 15C29.891 15 30.1493 15.05 30.4 15.15C30.6507 15.25 30.8673 15.4 31.05 15.6L32.425 17C32.625 17.1833 32.771 17.4 32.863 17.65C32.955 17.9 33.0007 18.15 33 18.4C33 18.6667 32.9543 18.921 32.863 19.163C32.7717 19.405 32.6257 19.6257 32.425 19.825L19.25 33H15ZM27.475 20.525L26.775 19.8L28.2 21.225L27.475 20.525Z" fill="black"/>
</svg>
