<svg width="24" height="24" viewBox="0 0 24 24" fill="none" xmlns="http://www.w3.org/2000/svg">
<path d="M12.132 15.404C12.5738 15.404 13.0112 15.317 13.4194 15.148C13.8275 14.9789 14.1983 14.7311 14.5107 14.4187C14.8231 14.1064 15.0709 13.7355 15.2399 13.3274C15.409 12.9192 15.496 12.4818 15.496 12.04C15.496 11.5983 15.409 11.1608 15.2399 10.7527C15.0709 10.3445 14.8231 9.9737 14.5107 9.66132C14.1983 9.34894 13.8275 9.10115 13.4194 8.93209C13.0112 8.76304 12.5738 8.67603 12.132 8.67603C11.2398 8.67603 10.3842 9.03045 9.7533 9.66132C9.12243 10.2922 8.76801 11.1478 8.76801 12.04C8.76801 12.9322 9.12243 13.7879 9.7533 14.4187C10.3842 15.0496 11.2398 15.404 12.132 15.404Z" stroke="#CDCDD2" stroke-width="1.5" stroke-linecap="round" stroke-linejoin="round"/>
<path d="M20.983 15.094C20.5862 16.2331 19.9744 17.2855 19.181 18.194L17.057 17.712C16.2516 18.4347 15.2945 18.9677 14.256 19.272L13.682 21.351C13.144 21.4477 12.5986 21.4975 12.052 21.5C11.3682 21.4998 10.6866 21.4227 10.02 21.27L9.41103 19.124C8.50314 18.79 7.6687 18.283 6.95403 17.631L4.85403 18.171C4.0202 17.1985 3.39495 16.0651 3.01703 14.841L4.56703 13.119C4.42524 12.2384 4.44864 11.3391 4.63603 10.467L3.10703 8.87202C3.55029 7.62034 4.2549 6.47735 5.17403 5.51902L7.34403 6.05902C7.94139 5.57969 8.60709 5.1924 9.31903 4.91002L9.89303 2.78602C10.6018 2.60129 11.3306 2.50489 12.063 2.49902C12.648 2.49902 13.233 2.55302 13.808 2.65902L14.359 4.77202C15.189 5.04102 15.967 5.45202 16.655 5.98902L18.837 5.42602C19.718 6.31271 20.4127 7.36674 20.88 8.52602L19.4 10.133C19.6805 11.2343 19.7038 12.3853 19.468 13.497L20.983 15.094Z" stroke="#CDCDD2" stroke-width="1.5" stroke-linecap="round" stroke-linejoin="round"/>
</svg>
