<svg width="24" height="24" viewBox="0 0 24 24" fill="none" xmlns="http://www.w3.org/2000/svg">
<path d="M16.25 21V16.235C16.2497 16.026 16.2083 15.8192 16.128 15.6262C16.0477 15.4333 15.9302 15.2581 15.7822 15.1106C15.6341 14.9631 15.4585 14.8462 15.2652 14.7667C15.072 14.6872 14.865 14.6465 14.656 14.647H9.344C9.13503 14.6465 8.92801 14.6872 8.73477 14.7667C8.54153 14.8462 8.36586 14.9631 8.21782 15.1106C8.06978 15.2581 7.95226 15.4333 7.87199 15.6262C7.79171 15.8192 7.75026 16.026 7.75 16.235V21M16.25 3.28501V5.64701C16.2497 5.85598 16.2083 6.06285 16.128 6.25578C16.0477 6.44872 15.9302 6.62394 15.7822 6.77143C15.6341 6.91891 15.4585 7.03577 15.2652 7.11531C15.072 7.19486 14.865 7.23553 14.656 7.23501H9.344C9.13503 7.23553 8.92801 7.19486 8.73477 7.11531C8.54153 7.03577 8.36586 6.91891 8.21782 6.77143C8.06978 6.62394 7.95226 6.44872 7.87199 6.25578C7.79171 6.06285 7.75026 5.85598 7.75 5.64701V3.00001M16.25 3.28501C15.8353 3.09707 15.3853 2.9999 14.93 3.00001H7.75M16.25 3.28501C16.594 3.44101 16.911 3.65901 17.184 3.93001L19.566 6.30501C19.8618 6.59933 20.0965 6.94914 20.2568 7.33439C20.4171 7.71964 20.4997 8.13275 20.5 8.55001V17.822C20.4995 18.24 20.4166 18.6537 20.2562 19.0396C20.0957 19.4256 19.8608 19.7761 19.5648 20.0712C19.2689 20.3663 18.9177 20.6002 18.5313 20.7596C18.1449 20.919 17.731 21.0007 17.313 21H6.688C6.27005 21.0008 5.85604 20.9192 5.46961 20.76C5.08319 20.6007 4.73192 20.3669 4.43587 20.0719C4.13983 19.7769 3.9048 19.4264 3.74422 19.0406C3.58364 18.6547 3.50066 18.241 3.5 17.823V6.17601C3.50079 5.75814 3.58387 5.34452 3.74451 4.95876C3.90515 4.57301 4.14019 4.22267 4.43623 3.92775C4.73226 3.63283 5.08348 3.39911 5.46984 3.23992C5.8562 3.08074 6.27013 2.99922 6.688 3.00001H7.75" stroke="#CDCDD2" stroke-width="1.5" stroke-linecap="round" stroke-linejoin="round"/>
</svg>
