<svg width="24" height="24" viewBox="0 0 24 24" fill="none" xmlns="http://www.w3.org/2000/svg">
<path d="M7.84 13.481V4.988C7.84 4.158 8.506 3.486 9.327 3.486C10.147 3.486 10.813 4.158 10.813 4.988M10.813 9.974V3.502C10.813 2.672 11.478 2 12.299 2C13.119 2 13.785 2.673 13.785 3.502V11.006M13.785 5.476C13.785 4.643 14.484 3.968 15.308 3.968C16.132 3.968 16.801 4.643 16.801 5.477V11.999M16.801 7.516C16.801 6.692 17.461 6.022 18.275 6.022C19.09 6.022 19.75 6.689 19.75 7.512V16.125C19.75 17.157 19.374 18.31 18.232 19.685C17.902 20.083 17.696 20.577 17.696 21.096V22M7.84 8.856C7.007 9.637 4.99 11.699 4.435 12.843C3.882 13.987 4.705 15.339 5.051 15.868L7.839 19.576C8.102 19.926 8.245 20.353 8.245 20.794V22" stroke="#666972" stroke-width="1.5" stroke-linecap="round" stroke-linejoin="round"/>
</svg>
